<?xml version="1.0" encoding="UTF-8" standalone="no"?>
<!-- Created with Inkscape (http://www.inkscape.org/) -->

<svg
   xmlns:dc="http://purl.org/dc/elements/1.1/"
   xmlns:cc="http://creativecommons.org/ns#"
   xmlns:rdf="http://www.w3.org/1999/02/22-rdf-syntax-ns#"
   xmlns:svg="http://www.w3.org/2000/svg"
   xmlns="http://www.w3.org/2000/svg"
   xmlns:sodipodi="http://sodipodi.sourceforge.net/DTD/sodipodi-0.dtd"
   xmlns:inkscape="http://www.inkscape.org/namespaces/inkscape"
   width="210mm"
   height="297mm"
   id="svg2"
   version="1.1"
   inkscape:version="0.48.1 "
   sodipodi:docname="pen10.svg">
  <defs
     id="defs4" />
  <sodipodi:namedview
     id="base"
     pagecolor="#ffffff"
     bordercolor="#666666"
     borderopacity="1.0"
     inkscape:pageopacity="0.0"
     inkscape:pageshadow="2"
     inkscape:zoom="1.4"
     inkscape:cx="-211.96761"
     inkscape:cy="696.2819"
     inkscape:document-units="px"
     inkscape:current-layer="g3799"
     showgrid="false"
     inkscape:window-width="1920"
     inkscape:window-height="1018"
     inkscape:window-x="-8"
     inkscape:window-y="-8"
     inkscape:window-maximized="1" />
  <metadata
     id="metadata7">
    <rdf:RDF>
      <cc:Work
         rdf:about="">
        <dc:format>image/svg+xml</dc:format>
        <dc:type
           rdf:resource="http://purl.org/dc/dcmitype/StillImage" />
        <dc:title></dc:title>
      </cc:Work>
    </rdf:RDF>
  </metadata>
  <g
     inkscape:label="レイヤー 1"
     inkscape:groupmode="layer"
     id="layer1">
    <g
       id="g3799">
      <rect
         inkscape:export-ydpi="19.116629"
         inkscape:export-xdpi="19.116629"
         inkscape:export-filename="C:\Users\Syuuichi\Desktop\path37197.png"
         y="-92.214867"
         x="319.71796"
         height="78.928574"
         width="37.8577"
         id="rect3775"
         style="fill:none;stroke:#646464;stroke-width:6.87159967;stroke-linecap:round;stroke-linejoin:miter;stroke-miterlimit:4;stroke-opacity:1;stroke-dasharray:none"
         transform="matrix(0.64530724,0.76392314,-0.76392314,0.64530724,0,0)" />
      <path
         inkscape:export-ydpi="19.116629"
         inkscape:export-xdpi="19.116629"
         inkscape:export-filename="C:\Users\Syuuichi\Desktop\path37197.png"
         sodipodi:nodetypes="ccc"
         inkscape:connector-curvature="0"
         id="path3779"
         d="m 215.73223,235.35101 -17.72967,40.68421 43.85716,-10.86106"
         style="fill:none;stroke:#646464;stroke-width:6;stroke-linecap:butt;stroke-linejoin:miter;stroke-miterlimit:4;stroke-opacity:1;stroke-dasharray:none" />
      <rect
         inkscape:export-filename="C:\Users\Syuuichi\Desktop\path37197.png"
         inkscape:export-ydpi="19.116629"
         inkscape:export-xdpi="19.116629"
         y="14.213693"
         x="335.43222"
         height="4.2857141"
         width="6.7857141"
         id="rect3791"
         style="fill:none;stroke:#646464;stroke-width:6;stroke-linecap:round;stroke-linejoin:miter;stroke-miterlimit:4;stroke-opacity:1;stroke-dasharray:none"
         transform="matrix(0.64530724,0.76392314,-0.76392314,0.64530724,0,0)" />
      <path
         inkscape:connector-curvature="0"
         id="path3825"
         d="m 50.714286,240.8042 0.714283,-74.92933 25.357151,0 0.357139,75.41587"
         style="fill:none;stroke:#646464;stroke-width:4;stroke-linecap:butt;stroke-linejoin:miter;stroke-miterlimit:4;stroke-opacity:1;stroke-dasharray:none" />
      <path
         sodipodi:nodetypes="ccccc"
         inkscape:connector-curvature="0"
         id="path3827"
         d="m 50.714288,240.93361 6.427576,-5.00542 6.427013,4.82437 6.065193,-5.08542 6.437358,4.90934"
         style="fill:none;stroke:#646464;stroke-width:4;stroke-linecap:butt;stroke-linejoin:miter;stroke-miterlimit:4;stroke-opacity:1;stroke-dasharray:none" />
      <path
         sodipodi:nodetypes="ccc"
         inkscape:connector-curvature="0"
         id="path3829"
         d="m 50.714281,239.92346 12.500003,22.14286 13.571437,-22.14286"
         style="fill:none;stroke:#646464;stroke-width:4;stroke-linecap:butt;stroke-linejoin:miter;stroke-miterlimit:4;stroke-opacity:1;stroke-dasharray:none" />
      <path
         inkscape:connector-curvature="0"
         id="path3833"
         d="M 56.947351,235.40131 57.07362,166.33213"
         style="fill:none;stroke:#646464;stroke-width:3;stroke-linecap:butt;stroke-linejoin:miter;stroke-miterlimit:4;stroke-opacity:1;stroke-dasharray:none" />
      <path
         inkscape:connector-curvature="0"
         id="path3835"
         d="m 69.447984,235.9064 -1e-6,-69.8268"
         style="fill:none;stroke:#646464;stroke-width:3;stroke-linecap:butt;stroke-linejoin:miter;stroke-miterlimit:4;stroke-opacity:1;stroke-dasharray:none" />
      <rect
         y="253.30339"
         x="61.338627"
         height="3.5918155"
         width="4.3494301"
         id="rect3841"
         style="fill:none;stroke:#646464;stroke-width:3.94371867;stroke-linecap:round;stroke-linejoin:miter;stroke-miterlimit:4;stroke-opacity:1;stroke-dasharray:none" />
      <path
         inkscape:connector-curvature="0"
         id="path3825-0"
         d="m 94.520856,388.03708 45.642824,-59.42767 20.25656,15.25308 -45.07958,60.46083"
         style="fill:none;stroke:#646464;stroke-width:4;stroke-linecap:butt;stroke-linejoin:miter;stroke-miterlimit:4;stroke-opacity:1;stroke-dasharray:none"
         inkscape:export-filename="C:\Users\Syuuichi\Desktop\pen10.png"
         inkscape:export-xdpi="31.325396"
         inkscape:export-ydpi="31.325396" />
      <path
         sodipodi:nodetypes="ccccc"
         inkscape:connector-curvature="0"
         id="path3827-1"
         d="m 94.443,388.14046 8.14559,-0.13221 2.23223,7.71999 7.9042,-0.41404 2.18938,7.79408"
         style="fill:none;stroke:#646464;stroke-width:4;stroke-linecap:butt;stroke-linejoin:miter;stroke-miterlimit:4;stroke-opacity:1;stroke-dasharray:none"
         inkscape:export-filename="C:\Users\Syuuichi\Desktop\pen10.png"
         inkscape:export-xdpi="31.325396"
         inkscape:export-ydpi="31.325396" />
      <path
         sodipodi:nodetypes="ccc"
         inkscape:connector-curvature="0"
         id="path3829-7"
         d="m 95.050642,387.33349 -3.333969,25.20796 24.161137,-9.52521"
         style="fill:none;stroke:#646464;stroke-width:4;stroke-linecap:butt;stroke-linejoin:miter;stroke-miterlimit:4;stroke-opacity:1;stroke-dasharray:none"
         inkscape:export-filename="C:\Users\Syuuichi\Desktop\pen10.png"
         inkscape:export-xdpi="31.325396"
         inkscape:export-ydpi="31.325396" />
      <path
         inkscape:connector-curvature="0"
         id="path3833-5"
         d="m 102.75014,387.47035 41.64803,-55.1"
         style="fill:none;stroke:#646464;stroke-width:3;stroke-linecap:butt;stroke-linejoin:miter;stroke-miterlimit:4;stroke-opacity:1;stroke-dasharray:none"
         inkscape:export-filename="C:\Users\Syuuichi\Desktop\pen10.png"
         inkscape:export-xdpi="31.325396"
         inkscape:export-ydpi="31.325396" />
      <path
         inkscape:connector-curvature="0"
         id="path3835-0"
         d="m 112.43245,395.39333 42.00289,-55.78117"
         style="fill:none;stroke:#646464;stroke-width:3;stroke-linecap:butt;stroke-linejoin:miter;stroke-miterlimit:4;stroke-opacity:1;stroke-dasharray:none"
         inkscape:export-filename="C:\Users\Syuuichi\Desktop\pen10.png"
         inkscape:export-xdpi="31.325396"
         inkscape:export-ydpi="31.325396" />
      <rect
         transform="matrix(0.79885046,0.60152967,-0.60152967,0.79885046,0,0)"
         y="265.6257"
         x="319.54819"
         height="3.5918155"
         width="4.3494301"
         id="rect3841-5"
         style="fill:none;stroke:#646464;stroke-width:3.94371867;stroke-linecap:round;stroke-linejoin:miter;stroke-miterlimit:4;stroke-opacity:1;stroke-dasharray:none"
         inkscape:export-filename="C:\Users\Syuuichi\Desktop\pen10.png"
         inkscape:export-xdpi="31.325396"
         inkscape:export-ydpi="31.325396" />
      <path
         inkscape:export-filename="C:\Users\Syuuichi\Desktop\path3w8221.png"
         inkscape:export-xdpi="32.28299"
         inkscape:export-ydpi="32.28299"
         style="fill:none;stroke:#646464;stroke-width:6;stroke-linecap:round;stroke-linejoin:miter;stroke-miterlimit:4;stroke-opacity:1;stroke-dasharray:none"
         id="path3821"
         d="m 194.2556,280.57096 c -1.61402,1.14084 -3.19716,2.32382 -4.74539,3.55241 -0.79666,0.63495 -1.47632,1.31879 -1.51082,2.37332 0.11452,0.89614 0.48941,1.71503 0.90697,2.50427 0.23704,0.76509 0.74375,1.34059 1.25359,1.93427 0.7423,0.78116 1.71688,1.24565 2.67241,1.71117 1.6235,0.71762 3.36188,1.09174 5.08424,1.48376 2.28238,0.46558 4.615,0.58545 6.93838,0.57448 2.94886,-0.0431 5.80142,-0.80745 8.59969,-1.66997 2.51306,-0.72825 4.90836,-1.78466 7.3381,-2.73966 1.27541,-0.53701 2.5604,-1.0545 3.75938,-1.74976 1.17712,-0.47574 2.43052,-0.71544 3.62644,-1.12812 1.0933,-0.54518 2.28182,-0.72177 3.47385,-0.91324 1.39948,-0.33493 2.8159,-0.52431 4.24975,-0.6163 0.83117,-0.0232 2.16591,-0.1929 2.67135,0.70481 0.0991,0.176 0.12167,0.3852 0.1825,0.57781 0.0804,1.89073 -1.28391,3.34708 -2.42905,4.69962 -1.05152,1.23558 -2.40988,2.22306 -3.25416,3.62665 -0.0281,0.0848 -0.0754,0.16541 -0.0843,0.25426 -0.0128,0.12817 0.16856,0.24378 0.25023,0.26982 1.0389,0.33109 2.0923,0.0916 3.1286,-0.0796 2.42483,-0.58776 4.74995,-1.48961 6.97436,-2.61301 0.51146,-0.25831 2.0071,-1.10563 1.51538,-0.81148 -1.00061,0.59858 -2.02859,1.15016 -3.04288,1.72525 0.15895,-0.0884 4.19731,-2.96998 6.28728,-3.22818 0.19531,-0.0241 0.41039,-0.0549 0.58981,0.026 0.66671,0.30044 0.62811,1.28511 0.67068,1.86181 0.12874,0.8973 -0.39131,2.20126 0.28799,2.96831 0.11198,0.12645 0.26659,0.20749 0.39988,0.31124 2.41391,0.84421 5.17128,0.17325 7.56207,-0.37587 3.998,-0.91827 4.77188,-1.30387 8.83455,-2.67922 1.77872,-0.73342 3.56782,-1.44218 5.33618,-2.20025 5.9075,-2.53248 11.71653,-5.27794 17.657,-7.73716 5.81505,-2.4073 7.09061,-2.83526 12.91034,-5.02723 7.02586,-2.53582 3.67815,-1.35473 10.03832,-3.5569 0,0 -3.58745,2.79026 -3.58745,2.79026 l 0,0 c -6.16017,2.0483 -2.90895,0.93879 -9.74715,3.34754 -5.8906,2.20958 -6.97097,2.5545 -12.8683,5.01851 -7.80498,3.26105 -15.40785,6.98455 -23.26946,10.11161 -4.22215,1.44393 -4.93397,1.81202 -9.08328,2.79168 -2.30117,0.54331 -5.04106,1.25393 -7.43807,0.65533 -0.28472,-0.0711 -0.53585,-0.23945 -0.80378,-0.35917 -0.16651,-0.15381 -0.35757,-0.2847 -0.49954,-0.46141 -0.72788,-0.90605 -0.34552,-2.13983 -0.3787,-3.19174 -0.005,-0.10615 -0.0144,-0.86763 -0.1047,-1.05755 -0.44061,-0.92672 -7.80387,4.00099 1.95925,-1.83841 -4.57142,2.64674 -9.03408,5.4891 -14.27625,6.58191 -0.94301,0.11763 -3.77813,0.64361 -4.06289,-0.91663 -0.0249,-0.13666 0.0198,-0.27714 0.0297,-0.41571 0.72866,-1.53092 2.19288,-2.53149 3.29857,-3.77169 1.06862,-1.22945 2.40006,-2.50019 2.55849,-4.20692 -0.0143,-0.10453 0.007,-0.22095 -0.0431,-0.3136 -0.33426,-0.61335 -1.85736,-0.37935 -2.38144,-0.37261 -1.42018,0.11968 -2.81996,0.35708 -4.21395,0.65362 -1.18582,0.22182 -2.33762,0.51391 -3.45184,0.98548 -1.21009,0.35021 -2.45112,0.64634 -3.5802,1.2207 -1.20726,0.61832 -2.46158,1.13396 -3.72079,1.63645 -2.40889,0.95438 -4.81134,1.93698 -7.30382,2.65872 -2.83864,0.83493 -5.7203,1.56399 -8.70191,1.5616 -2.36855,0.002 -4.74345,-0.12841 -7.06619,-0.62628 -1.76012,-0.3974 -3.53088,-0.80909 -5.1798,-1.56227 -1.02745,-0.49379 -2.0666,-0.99051 -2.83419,-1.8614 -0.54093,-0.6192 -1.07335,-1.23509 -1.32245,-2.03787 -0.43992,-0.86362 -0.82121,-1.75393 -1.0152,-2.70949 -0.11743,-1.21809 0.44018,-2.09946 1.38599,-2.8554 1.51775,-1.22454 3.08667,-2.38526 4.66069,-3.53629 0,0 4.90901,-1.95224 4.90901,-1.95224 z"
         inkscape:connector-curvature="0" />
      <path
         transform="matrix(0.78365156,0.62120064,-0.62120064,0.78365156,196.26964,-145.99337)"
         inkscape:connector-curvature="0"
         d="m 261.87076,517.56387 c -2.03123,4.70565 -2.82351,6.58756 3.61738,-9.23863 0.40661,-0.99911 -0.77581,2.01335 -1.13449,3.03065 -1.14864,3.25784 -2.20769,6.55466 -3.24753,9.84851 -0.60074,2.12796 -1.20705,4.31197 -1.12779,6.54782 0.0186,0.52429 -0.0219,1.40351 0.64301,1.28031 3.0714,-2.34945 5.7188,-5.35496 8.27362,-8.25384 5.94119,-7.44193 11.48068,-15.19059 17.20066,-22.80071 2.06337,-2.30426 4.60769,-7.79892 7.50477,-9.1288 0.39906,-0.18319 0.85975,-0.17899 1.28962,-0.26848 2.6964,0.43921 3.82023,2.98837 5.72741,4.59966 0.21015,0.0973 0.40028,0.26654 0.63049,0.29198 0.97373,0.10764 2.52693,-1.24537 3.08264,-1.74335 2.82962,-2.53568 3.50945,-3.61982 6.22771,-6.83219 6.73221,-8.79207 13.09889,-18.05531 17.60513,-28.21249 0,0 -3.2902,14.30402 -3.2902,14.30402 l 0,0 c -4.89742,9.81594 -11.19123,18.89426 -17.84063,27.59105 -2.09619,2.4955 -6.9659,9.85628 -11.39475,8.80425 -0.34384,-0.0817 -0.63777,-0.30473 -0.95665,-0.45709 -0.98695,-0.78268 -0.90322,-0.63769 -1.7432,-1.64012 -0.62345,-0.74399 -1.20199,-1.82913 -2.08391,-2.32532 -0.15223,-0.0856 -0.33998,-0.0802 -0.50997,-0.12029 -3.35869,1.69217 -5.29617,6.50918 -7.78654,9.17438 -5.7861,7.60101 -11.40808,15.3275 -17.32111,22.83098 -1.74349,1.97497 -5.90831,7.10227 -8.48451,8.02867 -0.43363,0.15594 -0.90741,0.16127 -1.36111,0.24191 -0.8621,-0.22197 -1.52071,-0.21882 -2.07267,-1.05193 -1.3718,-2.07056 0.0487,-6.1692 0.46413,-8.25501 3.18403,-10.48467 7.02192,-20.75118 11.3698,-30.8173 0,0 -3.28131,14.57136 -3.28131,14.57136 z"
         id="path3882"
         style="fill:#646464;stroke:#646464;stroke-width:3;stroke-linecap:round;stroke-linejoin:miter;stroke-miterlimit:4;stroke-opacity:1;stroke-dasharray:none;fill-opacity:1"
         inkscape:export-filename="C:\Users\Syuuichi\Desktop\pen10.png"
         inkscape:export-xdpi="31.325396"
         inkscape:export-ydpi="31.325396" />
    </g>
    <path
       style="fill:none;stroke:#646464;stroke-width:6;stroke-linecap:round;stroke-linejoin:miter;stroke-miterlimit:4;stroke-opacity:1;stroke-dasharray:none"
       id="path3797"
       d="m 271.52299,338.40865 c -3.46309,0.79019 -6.84939,1.86371 -10.27922,2.78024 -0.91589,0.2626 -1.69587,0.44627 -2.56297,0.85284 -0.42999,0.20162 -1.66079,0.92219 -1.24438,0.69383 1.0555,-0.57882 2.04301,-1.30057 3.16167,-1.74524 0.48475,-0.19269 -0.83374,0.62897 -1.22406,0.97504 -0.38837,0.34435 -0.73917,0.72889 -1.10876,1.09334 -1.44593,1.66273 -2.8619,3.59234 -3.05213,5.85571 0.0388,0.17043 0.0495,0.34981 0.11645,0.51128 0.47307,1.14167 2.23576,1.27083 3.24842,1.45356 2.09129,0.27962 4.2076,0.54725 6.32155,0.56565 1.64195,0.0143 2.8562,-0.11268 4.50409,-0.2354 3.33741,-0.29629 6.61092,-1.09662 9.71834,-2.34838 1.59625,-0.64303 2.55233,-1.18002 4.08427,-1.9679 5.58998,-3.21959 0.007,0.0325 -0.0576,-0.0765 -0.41391,-0.70163 1.32481,-0.94911 1.96701,-1.4503 1.70746,-1.33252 3.29105,-2.80404 4.86774,-4.28525 1.81077,-1.82632 3.46636,-3.81695 4.85162,-5.98555 0.433,-0.86779 1.16105,-1.67703 1.32703,-2.65768 -0.0446,-0.57051 -0.17044,-1.13092 -0.23182,-1.70114 -0.0621,-0.65339 -0.0303,-1.30756 -0.15664,-1.95314 -0.12416,-0.4265 -0.49742,-0.86324 -0.42707,-1.3333 0.0219,-0.14643 0.0968,-0.27985 0.1452,-0.41977 3.30824,-2.72508 7.38385,-3.99097 11.33923,-5.37278 1.54541,-0.65127 3.1467,-1.1126 4.76273,-1.54009 1.29781,-0.26383 2.64319,-0.36234 3.96579,-0.29789 0.18974,0.11728 0.42469,0.18192 0.5692,0.35184 0.72899,0.85713 0.25876,2.15544 -0.01,3.06191 -0.27608,0.93168 -0.62414,1.84637 -0.95586,2.75879 -0.27989,1.03604 -1.57678,3.26583 -0.98538,4.30234 0.21657,-0.0446 0.44403,-0.0859 0.64985,-0.16516 1.76821,-0.68078 3.49171,-1.49101 5.22964,-2.24622 3.41595,-1.41273 6.85507,-2.77951 10.165,-4.4315 1.57361,-0.80484 3.1815,-1.53642 4.7901,-2.26742 1.60268,-0.82429 3.22925,-1.60314 4.79496,-2.49668 0,0 -4.05322,3.27153 -4.05322,3.27153 l 0,0 c -1.57275,0.85191 -3.18094,1.63711 -4.78072,2.43658 -1.59366,0.75398 -3.19833,1.48324 -4.77712,2.26832 -3.30503,1.55342 -6.69893,2.89923 -10.05992,4.32393 -1.16755,0.51936 -2.32523,1.06145 -3.50237,1.55868 -0.60686,0.25635 -1.89016,0.90531 -2.62058,0.66382 -0.16342,-0.054 -0.28726,-0.1897 -0.43089,-0.28455 -0.0681,-0.13394 -0.16074,-0.25801 -0.20429,-0.40182 -0.40028,-1.3217 0.80997,-3.14605 1.15624,-4.37579 0.43299,-1.15811 0.5903,-1.52636 0.95368,-2.70751 0.1273,-0.41379 0.75039,-1.89171 0.24274,-2.38447 -0.1095,-0.10628 -0.28488,-0.10949 -0.42733,-0.16424 -1.30529,-0.0149 -2.61944,0.0945 -3.88597,0.42413 -1.57444,0.39688 -3.10919,0.91339 -4.6272,1.49064 -1.31426,0.46188 -2.63407,0.91784 -3.93777,1.40875 -0.4177,0.15728 -1.60567,0.75638 -1.24442,0.49425 2.29011,-1.66175 4.9289,-2.68987 2.73691,-1.80009 -0.0821,0.0539 -0.17763,0.0915 -0.24636,0.16162 -0.26202,0.26747 0.30572,0.93065 0.35138,1.20819 0.14369,0.66357 0.14783,1.32633 0.17928,2.00316 0.0559,0.59906 0.16933,1.18569 0.27591,1.77708 0.005,1.11412 -0.81483,2.00342 -1.31634,2.94284 -1.40918,2.23712 -3.10928,4.28378 -4.95762,6.17131 -1.607,1.49771 -3.21566,2.9968 -4.93248,4.37018 -0.63853,0.5108 -1.26324,1.04523 -1.95287,1.4846 -2.05732,1.31075 -4.17778,2.5198 -6.27854,3.75975 -0.70232,0.41454 -1.42013,0.80227 -2.1302,1.20341 -1.66878,0.83536 -2.37386,1.24147 -4.10658,1.90293 -3.14713,1.20141 -6.44834,1.96543 -9.80512,2.25021 -1.68595,0.12432 -2.93683,0.25177 -4.61923,0.24242 -2.16318,-0.012 -4.32495,-0.29124 -6.46852,-0.54771 -1.70664,-0.3412 -3.40378,-0.62236 -3.80228,-2.58081 0.0132,-0.25758 -0.004,-0.51854 0.0395,-0.77274 0.35215,-2.05243 1.72049,-3.90768 2.99406,-5.47781 2.72561,-2.85418 3.51427,-2.9782 7.84885,-5.47197 1.20374,-0.69253 2.50857,-1.12614 3.85628,-1.4378 3.48231,-0.90825 6.92645,-1.95578 10.40737,-2.8698 0,0 -4.15839,3.17975 -4.15839,3.17975 z"
       inkscape:connector-curvature="0"
       inkscape:export-filename="C:\Users\Syuuichi\Desktop\path37197.png"
       inkscape:export-xdpi="19.116629"
       inkscape:export-ydpi="19.116629" />
  </g>
</svg>
